<?xml version="1.0" encoding="UTF-8"?>
<!DOCTYPE svg PUBLIC "-//W3C//DTD SVG 1.1//EN" "http://www.w3.org/Graphics/SVG/1.1/DTD/svg11.dtd">
<svg xmlns="http://www.w3.org/2000/svg" version="1.1" width="1024px" height="1024px" style="shape-rendering:geometricPrecision; text-rendering:geometricPrecision; image-rendering:optimizeQuality; fill-rule:evenodd; clip-rule:evenodd" xmlns:xlink="http://www.w3.org/1999/xlink">
<g><path style="opacity:1" fill="#fbfbfb" d="M -0.5,-0.5 C 340.833,-0.5 682.167,-0.5 1023.5,-0.5C 1023.5,340.833 1023.5,682.167 1023.5,1023.5C 682.167,1023.5 340.833,1023.5 -0.5,1023.5C -0.5,682.167 -0.5,340.833 -0.5,-0.5 Z"/></g>
<g><path style="opacity:1" fill="#112434" d="M 809.5,428.5 C 808.668,459.664 808.168,490.997 808,522.5C 806.494,520.935 804.994,520.601 803.5,521.5C 792.279,517.201 780.946,513.534 769.5,510.5C 769.938,510.565 770.272,510.399 770.5,510C 769.836,469.736 769.169,429.569 768.5,389.5C 682.261,314.102 596.427,238.102 511,161.5C 425.927,237.617 340.761,313.617 255.5,389.5C 254.5,480.831 254.167,572.164 254.5,663.5C 305.833,663.5 357.167,663.5 408.5,663.5C 357.335,664.333 306.002,664.833 254.5,665C 306.17,665.833 357.837,665.667 409.5,664.5C 410.831,610.706 410.831,557.039 409.5,503.5C 417.415,457.75 443.748,428.583 488.5,416C 531.31,408.267 566.477,421.1 594,454.5C 606.47,471.446 613.303,490.446 614.5,511.5C 613.668,532.329 613.168,553.329 613,574.5C 611.5,577.5 610,580.5 608.5,583.5C 608.624,584.107 608.957,584.44 609.5,584.5C 589.676,615.796 582.176,649.796 587,686.5C 581.298,692.37 575.465,698.036 569.5,703.5C 567.804,703.685 566.471,704.519 565.5,706C 453.333,706.167 341.333,706.667 229.5,707.5C 223.528,706.694 219.194,703.694 216.5,698.5C 216.108,696.821 215.608,695.154 215,693.5C 214.833,604.666 214.333,515.999 213.5,427.5C 212.508,427.328 211.842,427.662 211.5,428.5C 197.371,440.792 183.371,453.292 169.5,466C 160.057,472.88 150.391,473.214 140.5,467C 131.872,457.221 131.372,447.054 139,436.5C 258.464,330.704 377.631,224.538 496.5,118C 507.71,109.027 518.376,109.693 528.5,120C 647.369,226.538 766.536,332.704 886,438.5C 892.638,449.475 891.138,459.308 881.5,468C 873.167,474 864.833,474 856.5,468C 841,454.5 825.5,441 810,427.5C 809.601,427.728 809.435,428.062 809.5,428.5 Z"/></g>
<g><path style="opacity:1" fill="#000001" d="M 768.5,389.5 C 769.169,429.569 769.836,469.736 770.5,510C 770.272,510.399 769.938,510.565 769.5,510.5C 768.501,470.337 768.168,430.003 768.5,389.5 Z"/></g>
<g><path style="opacity:1" fill="#000107" d="M 809.5,428.5 C 809.667,460.502 809.5,492.502 809,524.5C 807.22,523.361 805.386,522.361 803.5,521.5C 804.994,520.601 806.494,520.935 808,522.5C 808.168,490.997 808.668,459.664 809.5,428.5 Z"/></g>
<g><path style="opacity:1" fill="#fbfbfb" d="M 569.5,497.5 C 570.807,502.066 571.474,506.733 571.5,511.5C 571.5,562.167 571.5,612.833 571.5,663.5C 531.5,663.5 491.5,663.5 451.5,663.5C 451.333,610.832 451.5,558.166 452,505.5C 452.737,501.793 453.571,498.127 454.5,494.5C 469.353,462.907 494.02,450.741 528.5,458C 548.947,464.283 562.614,477.449 569.5,497.5 Z"/></g>
<g><path style="opacity:1" fill="#000005" d="M 213.5,427.5 C 214.333,515.999 214.833,604.666 215,693.5C 215.608,695.154 216.108,696.821 216.5,698.5C 214.552,696.68 213.552,694.346 213.5,691.5C 213.5,603.5 213.5,515.5 213.5,427.5 Z"/></g>
<g><path style="opacity:1" fill="#010305" d="M 614.5,511.5 C 614.667,532.836 614.5,554.169 614,575.5C 612.487,578.527 610.987,581.527 609.5,584.5C 608.957,584.44 608.624,584.107 608.5,583.5C 610,580.5 611.5,577.5 613,574.5C 613.168,553.329 613.668,532.329 614.5,511.5 Z"/></g>
<g><path style="opacity:1" fill="#112334" d="M 676.5,805.5 C 673.764,807.196 670.764,808.362 667.5,809C 658.833,809.333 650.167,809.667 641.5,810C 640.171,820.265 640.171,830.431 641.5,840.5C 640.632,846.399 637.632,850.899 632.5,854C 620.91,855.436 609.243,855.936 597.5,855.5C 597.667,869.504 597.5,883.504 597,897.5C 596.083,901.674 593.916,905.007 590.5,907.5C 589.279,906.535 587.946,906.702 586.5,908C 546.947,908.478 507.613,908.645 468.5,908.5C 465.757,906.761 463.757,904.427 462.5,901.5C 461.863,878.36 461.197,855.36 460.5,832.5C 460.989,831.005 461.655,829.671 462.5,828.5C 495.5,797.17 528.167,764.837 560.5,731.5C 573.89,717.939 587.223,704.106 600.5,690C 591.576,632.852 609.91,586.519 655.5,551C 699.425,521.867 745.759,517.534 794.5,538C 841.154,560.339 868.321,597.172 876,648.5C 880.532,707.933 858.032,753.766 808.5,786C 770.256,806.981 730.59,810.148 689.5,795.5C 685.129,798.881 680.796,802.215 676.5,805.5 Z"/></g>
<g><path style="opacity:1" fill="#cca05c" d="M 610.5,792.5 C 609.501,802.083 609.168,812.417 609.5,823.5C 598.828,823.333 588.161,823.5 577.5,824C 576.833,824.333 576.167,824.667 575.5,825C 575.728,825.399 576.062,825.565 576.5,825.5C 571.045,828.291 567.378,832.624 565.5,838.5C 564.501,850.753 564.168,863.753 564.5,877.5C 540.167,877.5 515.833,877.5 491.5,877.5C 491.828,865.655 491.495,853.988 490.5,842.5C 498.78,834.555 507.114,826.555 515.5,818.5C 538.582,796.92 561.249,774.753 583.5,752C 583.272,751.601 582.938,751.435 582.5,751.5C 598.051,736.45 613.551,721.117 629,705.5C 631.072,702.117 632.239,698.45 632.5,694.5C 631.041,687.393 629.707,680.393 628.5,673.5C 627.34,656.642 629.673,640.309 635.5,624.5C 662.883,569.311 706.883,548.145 767.5,561C 810.3,575.134 836.134,604.301 845,648.5C 850.137,703.417 827.97,742.583 778.5,766C 745.898,777.469 714.065,775.636 683,760.5C 679.823,760.891 676.99,762.057 674.5,764C 669.167,769.333 663.833,774.667 658.5,780C 646.167,780.333 633.833,780.667 621.5,781C 616.252,783.412 612.586,787.246 610.5,792.5 Z"/></g>
<g><path style="opacity:1" fill="#0a1625" d="M 454.5,494.5 C 453.571,498.127 452.737,501.793 452,505.5C 451.5,558.166 451.333,610.832 451.5,663.5C 491.331,664.333 531.331,664.833 571.5,665C 531.163,665.833 490.829,665.667 450.5,664.5C 449.338,613.541 449.171,562.541 450,511.5C 450.389,505.279 451.722,499.279 454,493.5C 454.399,493.728 454.565,494.062 454.5,494.5 Z"/></g>
<g><path style="opacity:1" fill="#87939b" d="M 211.5,428.5 C 211.842,427.662 212.508,427.328 213.5,427.5C 213.5,515.5 213.5,603.5 213.5,691.5C 212.833,603.833 212.167,516.167 211.5,428.5 Z"/></g>
<g><path style="opacity:1" fill="#000515" d="M 569.5,497.5 C 571.574,501.11 572.741,505.11 573,509.5C 573.667,560.833 573.667,612.167 573,663.5C 572.833,612.665 572.333,561.998 571.5,511.5C 571.474,506.733 570.807,502.066 569.5,497.5 Z"/></g>
<g><path style="opacity:1" fill="#102334" d="M 754.5,601.5 C 780.031,599.839 796.531,611.172 804,635.5C 805.884,658.942 795.717,674.442 773.5,682C 747.717,685.858 730.884,675.358 723,650.5C 720.266,633.365 725.766,619.532 739.5,609C 744.313,605.927 749.313,603.427 754.5,601.5 Z"/></g>
<g><path style="opacity:1" fill="#071423" d="M 409.5,503.5 C 410.831,557.039 410.831,610.706 409.5,664.5C 357.837,665.667 306.17,665.833 254.5,665C 306.002,664.833 357.335,664.333 408.5,663.5C 408.18,610.137 408.513,556.804 409.5,503.5 Z"/></g>
<g><path style="opacity:1" fill="#f7f7f8" d="M 758.5,629.5 C 772.484,628.317 778.317,634.65 776,648.5C 769.662,657.358 761.996,658.692 753,652.5C 747.143,642.945 748.977,635.278 758.5,629.5 Z"/></g>
<g><path style="opacity:1" fill="#030d2a" d="M 635.5,624.5 C 629.673,640.309 627.34,656.642 628.5,673.5C 627.351,667.211 627.185,658.878 628,648.5C 628.559,644.814 629.226,641.147 630,637.5C 631.307,632.241 633.141,627.908 635.5,624.5 Z"/></g>
<g><path style="opacity:1" fill="#000000" d="M 569.5,703.5 C 568.71,704.794 567.71,705.961 566.5,707C 454.167,707.5 341.834,707.667 229.5,707.5C 341.333,706.667 453.333,706.167 565.5,706C 566.471,704.519 567.804,703.685 569.5,703.5 Z"/></g>
<g><path style="opacity:1" fill="#090e18" d="M 560.5,731.5 C 528.167,764.837 495.5,797.17 462.5,828.5C 494.55,795.45 527.216,763.117 560.5,731.5 Z"/></g>
<g><path style="opacity:1" fill="#05122e" d="M 573.5,759.5 C 560.167,773.5 546.5,787.167 532.5,800.5C 544.62,786.866 557.62,773.366 571.5,760C 572.094,759.536 572.761,759.369 573.5,759.5 Z"/></g>
<g><path style="opacity:1" fill="#e4b25f" d="M 582.5,751.5 C 582.938,751.435 583.272,751.601 583.5,752C 561.249,774.753 538.582,796.92 515.5,818.5C 521.167,812.5 526.833,806.5 532.5,800.5C 546.5,787.167 560.167,773.5 573.5,759.5C 576.5,756.833 579.5,754.167 582.5,751.5 Z"/></g>
<g><path style="opacity:1" fill="#020408" d="M 676.5,805.5 C 674.88,807.984 672.547,809.484 669.5,810C 660.5,810.333 651.5,810.667 642.5,811C 641.514,820.75 641.181,830.584 641.5,840.5C 640.171,830.431 640.171,820.265 641.5,810C 650.167,809.667 658.833,809.333 667.5,809C 670.764,808.362 673.764,807.196 676.5,805.5 Z"/></g>
<g><path style="opacity:1" fill="#e0af5e" d="M 610.5,792.5 C 610.81,803.581 610.477,814.581 609.5,825.5C 598.5,825.5 587.5,825.5 576.5,825.5C 576.062,825.565 575.728,825.399 575.5,825C 576.167,824.667 576.833,824.333 577.5,824C 588.161,823.5 598.828,823.333 609.5,823.5C 609.168,812.417 609.501,802.083 610.5,792.5 Z"/></g>
<g><path style="opacity:1" fill="#21252a" d="M 460.5,832.5 C 461.197,855.36 461.863,878.36 462.5,901.5C 461.442,900.4 460.608,899.066 460,897.5C 459.189,875.79 459.355,854.124 460.5,832.5 Z"/></g>
<g><path style="opacity:1" fill="#ecb761" d="M 565.5,838.5 C 565.5,851.833 565.5,865.167 565.5,878.5C 540.167,878.5 514.833,878.5 489.5,878.5C 489.5,866.833 489.5,855.167 489.5,843.5C 490.167,843.5 490.5,843.167 490.5,842.5C 491.495,853.988 491.828,865.655 491.5,877.5C 515.833,877.5 540.167,877.5 564.5,877.5C 564.168,863.753 564.501,850.753 565.5,838.5 Z"/></g>
<g><path style="opacity:1" fill="#081831" d="M 576.5,825.5 C 587.5,825.5 598.5,825.5 609.5,825.5C 599.912,826.344 589.578,826.844 578.5,827C 573,828.5 569.5,832 568,837.5C 567.5,851.496 567.333,865.496 567.5,879.5C 541.167,880.833 514.833,880.833 488.5,879.5C 488.168,866.752 488.501,854.752 489.5,843.5C 489.5,855.167 489.5,866.833 489.5,878.5C 514.833,878.5 540.167,878.5 565.5,878.5C 565.5,865.167 565.5,851.833 565.5,838.5C 567.378,832.624 571.045,828.291 576.5,825.5 Z"/></g>
<g><path style="opacity:1" fill="#000108" d="M 590.5,907.5 C 589.527,907.987 588.527,908.487 587.5,909C 547.792,909.821 508.125,909.655 468.5,908.5C 507.613,908.645 546.947,908.478 586.5,908C 587.946,906.702 589.279,906.535 590.5,907.5 Z"/></g>
</svg>
