<?xml version="1.0" encoding="UTF-8"?>
<!DOCTYPE svg PUBLIC "-//W3C//DTD SVG 1.1//EN" "http://www.w3.org/Graphics/SVG/1.1/DTD/svg11.dtd">
<svg xmlns="http://www.w3.org/2000/svg" version="1.1" width="1024px" height="1024px" style="shape-rendering:geometricPrecision; text-rendering:geometricPrecision; image-rendering:optimizeQuality; fill-rule:evenodd; clip-rule:evenodd" xmlns:xlink="http://www.w3.org/1999/xlink">
<g><path style="opacity:1" fill="#fefefe" d="M -0.5,-0.5 C 340.833,-0.5 682.167,-0.5 1023.5,-0.5C 1023.5,340.833 1023.5,682.167 1023.5,1023.5C 682.167,1023.5 340.833,1023.5 -0.5,1023.5C -0.5,682.167 -0.5,340.833 -0.5,-0.5 Z"/></g>
<g><path style="opacity:1" fill="#101f2b" d="M 893.5,578.5 C 882.833,578.5 872.167,578.5 861.5,578.5C 830.498,501.002 798.998,423.668 767,346.5C 734.867,423.736 703.034,501.07 671.5,578.5C 660.833,578.5 650.167,578.5 639.5,578.5C 675.544,490.074 711.878,401.741 748.5,313.5C 743.701,314.111 738.701,315.277 733.5,317C 713.967,320.295 694.3,321.295 674.5,320C 644.785,315.257 615.119,310.257 585.5,305C 562.985,304.075 548.318,314.241 541.5,335.5C 541.19,334.262 540.69,334.262 540,335.5C 539.333,453.167 539.333,570.833 540,688.5C 541.476,694.119 543.976,699.119 547.5,703.5C 548.79,704.058 549.623,705.058 550,706.5C 557.322,759.819 586.488,794.985 637.5,812C 650.907,814.805 664.24,817.805 677.5,821C 688.886,826.054 696.386,834.554 700,846.5C 702.74,856.134 703.073,865.801 701,875.5C 699.005,877.747 696.505,878.747 693.5,878.5C 572.166,878.667 450.833,878.5 329.5,878C 327.146,877.153 324.812,876.32 322.5,875.5C 317.667,856.797 322,840.297 335.5,826C 339.007,823.746 342.673,821.746 346.5,820C 367.311,817.131 387.311,811.465 406.5,803C 444.566,782.388 466.399,750.555 472,707.5C 475.803,701.561 478.803,695.227 481,688.5C 481.5,572.167 481.667,455.834 481.5,339.5C 482.333,455.333 482.833,571.333 483,687.5C 483.667,571.167 483.667,454.833 483,338.5C 482.31,331.894 479.81,326.227 475.5,321.5C 467.736,310.931 457.236,305.265 444,304.5C 411.812,309.479 379.645,314.646 347.5,320C 321.814,322.678 297.148,319.844 273.5,311.5C 310.564,400.363 347.23,489.363 383.5,578.5C 372.833,578.5 362.167,578.5 351.5,578.5C 320.4,500.962 288.733,423.629 256.5,346.5C 223.95,423.6 191.95,500.934 160.5,578.5C 149.833,578.5 139.167,578.5 128.5,578.5C 165.492,488.529 202.492,398.529 239.5,308.5C 232.163,305.996 227.33,300.996 225,293.5C 218.612,274.128 224.445,259.962 242.5,251C 253.947,248.608 264.28,250.941 273.5,258C 286.772,270.455 302.605,276.288 321,275.5C 334.29,275.097 347.457,273.597 360.5,271C 391.081,262.688 421.747,254.688 452.5,247C 458.117,245.948 463.784,245.282 469.5,245C 473.413,229.518 477.413,214.018 481.5,198.5C 469.306,169.79 472.806,143.123 492,118.5C 505.667,104.863 519.001,105.196 532,119.5C 549.712,143.932 552.879,170.099 541.5,198C 546.053,214.046 550.053,230.213 553.5,246.5C 559.545,246.428 565.545,246.928 571.5,248C 600.538,255.51 629.538,263.176 658.5,271C 675.968,275.017 693.635,276.351 711.5,275C 720.064,273.478 728.397,271.145 736.5,268C 742.167,263.667 747.833,259.333 753.5,255C 769.154,246.033 782.987,248.2 795,261.5C 803.841,278.245 801.674,293.412 788.5,307C 786.744,307.202 785.078,307.702 783.5,308.5C 819.975,398.593 856.641,488.593 893.5,578.5 Z"/></g>
<g><path style="opacity:1" fill="#fefefe" d="M 351.5,578.5 C 287.833,578.5 224.167,578.5 160.5,578.5C 191.95,500.934 223.95,423.6 256.5,346.5C 288.733,423.629 320.4,500.962 351.5,578.5 Z"/></g>
<g><path style="opacity:1" fill="#fefefe" d="M 861.5,578.5 C 798.167,578.5 734.833,578.5 671.5,578.5C 703.034,501.07 734.867,423.736 767,346.5C 798.998,423.668 830.498,501.002 861.5,578.5 Z"/></g>
<g><path style="opacity:1" fill="#0c121a" d="M 541.5,335.5 C 541.333,453.834 541.5,572.167 542,690.5C 543.846,694.855 545.679,699.188 547.5,703.5C 543.976,699.119 541.476,694.119 540,688.5C 539.333,570.833 539.333,453.167 540,335.5C 540.69,334.262 541.19,334.262 541.5,335.5 Z"/></g>
<g><path style="opacity:1" fill="#000008" d="M 475.5,321.5 C 479.81,326.227 482.31,331.894 483,338.5C 483.667,454.833 483.667,571.167 483,687.5C 482.833,571.333 482.333,455.333 481.5,339.5C 480.885,332.99 478.885,326.99 475.5,321.5 Z"/></g>
<g><path style="opacity:1" fill="#b89760" d="M 128.5,578.5 C 139.167,578.5 149.833,578.5 160.5,578.5C 224.167,578.5 287.833,578.5 351.5,578.5C 362.167,578.5 372.833,578.5 383.5,578.5C 389.105,577.908 394.439,578.741 399.5,581C 402.844,584.184 404.011,588.018 403,592.5C 379.445,645.356 338.945,676.523 281.5,686C 213.43,693.371 159.93,669.204 121,613.5C 116.359,605.886 112.526,597.886 109.5,589.5C 111.891,579.46 118.225,575.794 128.5,578.5 Z"/></g>
<g><path style="opacity:1" fill="#b89760" d="M 639.5,578.5 C 650.167,578.5 660.833,578.5 671.5,578.5C 734.833,578.5 798.167,578.5 861.5,578.5C 872.167,578.5 882.833,578.5 893.5,578.5C 899.434,577.889 905.1,578.722 910.5,581C 913.243,584.761 914.076,588.928 913,593.5C 887.65,645.152 846.483,675.985 789.5,686C 721.041,693.348 667.875,668.515 630,611.5C 626.561,605.725 623.561,599.725 621,593.5C 619.711,588.035 621.211,583.535 625.5,580C 630.066,578.691 634.733,578.191 639.5,578.5 Z"/></g>
<g><path style="opacity:1" fill="#000105" d="M 322.5,875.5 C 324.812,876.32 327.146,877.153 329.5,878C 450.833,878.5 572.166,878.667 693.5,878.5C 572.001,879.666 450.334,879.833 328.5,879C 325.975,878.576 323.975,877.41 322.5,875.5 Z"/></g>
</svg>
