<?xml version="1.0" encoding="UTF-8"?>
<!DOCTYPE svg PUBLIC "-//W3C//DTD SVG 1.1//EN" "http://www.w3.org/Graphics/SVG/1.1/DTD/svg11.dtd">
<svg xmlns="http://www.w3.org/2000/svg" version="1.1" width="1024px" height="1024px" style="shape-rendering:geometricPrecision; text-rendering:geometricPrecision; image-rendering:optimizeQuality; fill-rule:evenodd; clip-rule:evenodd" xmlns:xlink="http://www.w3.org/1999/xlink">
<g><path style="opacity:1" fill="#fbfbfb" d="M -0.5,-0.5 C 340.833,-0.5 682.167,-0.5 1023.5,-0.5C 1023.5,340.833 1023.5,682.167 1023.5,1023.5C 682.167,1023.5 340.833,1023.5 -0.5,1023.5C -0.5,682.167 -0.5,340.833 -0.5,-0.5 Z"/></g>
<g><path style="opacity:1" fill="#12212d" d="M 104.5,101.5 C 197.747,102.005 291.08,102.838 384.5,104C 385.701,104.903 386.535,106.069 387,107.5C 387.491,177.745 387.657,247.745 387.5,317.5C 387.167,318.5 386.5,319.167 385.5,319.5C 384.279,318.535 382.946,318.702 381.5,320C 289.666,320.167 197.999,320.667 106.5,321.5C 102.711,320.944 100.045,318.944 98.5,315.5C 99.3329,246.001 99.8329,176.335 100,106.5C 101.039,105.756 101.539,104.756 101.5,103.5C 101.973,102.094 102.973,101.427 104.5,101.5 Z"/></g>
<g><path style="opacity:1" fill="#000101" d="M 101.5,103.5 C 101.539,104.756 101.039,105.756 100,106.5C 99.8329,176.335 99.3329,246.001 98.5,315.5C 98.3333,245.499 98.5,175.499 99,105.5C 99.7083,104.619 100.542,103.953 101.5,103.5 Z"/></g>
<g><path style="opacity:1" fill="#1e2022" d="M 387.5,317.5 C 387.657,247.745 387.491,177.745 387,107.5C 386.535,106.069 385.701,104.903 384.5,104C 291.08,102.838 197.747,102.005 104.5,101.5C 196.763,100.336 289.097,100.169 381.5,101C 384.102,101.883 386.269,103.383 388,105.5C 388.83,176.237 388.663,246.904 387.5,317.5 Z"/></g>
<g><path style="opacity:1" fill="#000000" d="M 786.5,108.5 C 691.668,109.333 596.668,109.833 501.5,110C 499.567,110.251 497.734,110.751 496,111.5C 495.536,110.906 495.369,110.239 495.5,109.5C 592.482,108.512 689.482,108.178 786.5,108.5 Z"/></g>
<g><path style="opacity:1" fill="#13212c" d="M 786.5,108.5 C 804.296,110.82 820.629,116.987 835.5,127C 866.689,152.356 898.022,177.523 929.5,202.5C 946.095,221.316 946.595,240.65 931,260.5C 911.02,283.917 887.687,287.917 861,272.5C 860.982,274.797 861.149,277.131 861.5,279.5C 860.334,462.666 860.167,646 861,829.5C 862.996,830.341 864.829,830.008 866.5,828.5C 872.225,829.056 876.058,832.056 878,837.5C 885.47,858.244 893.137,878.911 901,899.5C 903.192,908.472 900.025,914.472 891.5,917.5C 842.668,916.667 793.668,916.167 744.5,916C 737.465,913.632 734.632,908.798 736,901.5C 737.398,897.14 738.898,892.807 740.5,888.5C 740.376,887.893 740.043,887.56 739.5,887.5C 744.987,871.214 750.987,855.214 757.5,839.5C 757.435,839.938 757.601,840.272 758,840.5C 761.107,832.273 767.107,828.273 776,828.5C 776.667,653.5 776.667,478.5 776,303.5C 775.721,300.543 774.887,297.877 773.5,295.5C 769.868,286.203 763.535,279.536 754.5,275.5C 753.918,273.957 752.251,273.124 749.5,273C 735.171,272.5 720.837,272.333 706.5,272.5C 706.194,275.385 706.527,278.052 707.5,280.5C 704.313,299.58 693.646,312.247 675.5,318.5C 672.421,318.804 669.587,319.804 667,321.5C 666.667,346.5 666.333,371.5 666,396.5C 664.924,400.559 663.757,404.559 662.5,408.5C 652.365,427.173 636.699,434.673 615.5,431C 608.864,429.354 603.197,426.187 598.5,421.5C 591.402,414.548 586.569,406.215 584,396.5C 583.667,372.167 583.333,347.833 583,323.5C 582.5,346.831 582.333,370.164 582.5,393.5C 581.502,370.339 581.169,347.006 581.5,323.5C 561.936,324.617 542.603,323.117 523.5,319C 515.483,316.492 507.816,313.159 500.5,309C 490.831,302.497 480.831,296.497 470.5,291C 467.899,290.08 465.232,289.413 462.5,289C 452.118,288.87 441.784,288.204 431.5,287C 427.7,285.358 424.7,282.858 422.5,279.5C 421.68,277.188 420.847,274.854 420,272.5C 419.833,233.331 419.333,194.331 418.5,155.5C 419.105,148.72 422.105,143.22 427.5,139C 445.256,129.788 463.256,121.122 481.5,113C 486.208,111.929 490.874,110.763 495.5,109.5C 495.369,110.239 495.536,110.906 496,111.5C 497.734,110.751 499.567,110.251 501.5,110C 596.668,109.833 691.668,109.333 786.5,108.5 Z"/></g>
<g><path style="opacity:1" fill="#000813" d="M 523.5,139.5 C 518.833,139.5 514.167,139.5 509.5,139.5C 508.127,139.657 506.793,139.49 505.5,139C 507.833,138.667 510.167,138.333 512.5,138C 600.5,137.333 688.5,137.333 776.5,138C 691.999,138.167 607.666,138.667 523.5,139.5 Z"/></g>
<g><path style="opacity:1" fill="#fbfbfb" d="M 509.5,139.5 C 514.167,139.5 518.833,139.5 523.5,139.5C 609.501,139.333 695.501,139.5 781.5,140C 797.544,141.528 811.877,147.195 824.5,157C 852.759,180.047 880.925,203.214 909,226.5C 911.498,238.948 906.332,246.448 893.5,249C 885.699,249.55 878.365,247.884 871.5,244C 856.023,235.362 843.19,223.862 833,209.5C 818.731,195.114 801.564,186.114 781.5,182.5C 736.18,181.542 690.847,181.208 645.5,181.5C 633.025,182.825 621.358,186.658 610.5,193C 600.593,199.571 591.259,206.904 582.5,215C 577.566,219.426 573.233,224.26 569.5,229.5C 562.86,235.881 562.86,242.381 569.5,249C 571.909,250.707 574.575,251.54 577.5,251.5C 605.997,252.332 634.664,252.832 663.5,253C 676.333,258.837 680.167,268.337 675,281.5C 670.765,287.86 664.931,291.527 657.5,292.5C 618.761,292.827 580.094,292.494 541.5,291.5C 534.28,290.595 527.28,288.762 520.5,286C 509.364,279.262 498.364,272.262 487.5,265C 482.471,261.982 477.138,259.816 471.5,258.5C 463.877,257.394 456.21,256.727 448.5,256.5C 448.333,225.498 448.5,194.498 449,163.5C 463.374,154.729 478.541,147.729 494.5,142.5C 499.605,141.412 504.605,140.412 509.5,139.5 Z"/></g>
<g><path style="opacity:1" fill="#010102" d="M 418.5,155.5 C 419.333,194.331 419.833,233.331 420,272.5C 420.847,274.854 421.68,277.188 422.5,279.5C 420.59,278.025 419.424,276.025 419,273.5C 418.5,234.168 418.333,194.835 418.5,155.5 Z"/></g>
<g><path style="opacity:1" fill="#010303" d="M 645.5,181.5 C 690.847,181.208 736.18,181.542 781.5,182.5C 780.036,183.16 778.369,183.493 776.5,183.5C 732.675,182.86 689.008,182.193 645.5,181.5 Z"/></g>
<g><path style="opacity:1" fill="#f9f9fa" d="M 644.5,211.5 C 654.629,210.95 664.296,212.783 673.5,217C 671.191,219.487 668.524,221.487 665.5,223C 651.167,223.667 636.833,223.667 622.5,223C 629.212,217.812 636.545,213.979 644.5,211.5 Z"/></g>
<g><path style="opacity:1" fill="#030811" d="M 494.5,142.5 C 478.541,147.729 463.374,154.729 449,163.5C 448.5,194.498 448.333,225.498 448.5,256.5C 456.21,256.727 463.877,257.394 471.5,258.5C 470.551,259.152 469.385,259.486 468,259.5C 460.732,259.281 453.732,258.281 447,256.5C 446.333,225.5 446.333,194.5 447,163.5C 461.301,154.433 476.467,147.1 492.5,141.5C 493.416,141.543 494.083,141.876 494.5,142.5 Z"/></g>
<g><path style="opacity:1" fill="#0a1026" d="M 777.5,214.5 C 768.993,212.2 760.327,211.2 751.5,211.5C 736.661,210.174 721.661,210.174 706.5,211.5C 706.624,212.107 706.957,212.44 707.5,212.5C 710.688,220.285 709.855,227.619 705,234.5C 704.25,235.126 703.416,235.626 702.5,236C 698.848,236.499 695.182,236.665 691.5,236.5C 695.021,235.629 698.688,234.795 702.5,234C 706.485,230.861 708.485,226.694 708.5,221.5C 707.479,217.474 706.479,213.474 705.5,209.5C 723.836,209.333 742.17,209.5 760.5,210C 766.686,210.57 772.686,211.904 778.5,214C 778.272,214.399 777.938,214.565 777.5,214.5 Z"/></g>
<g><path style="opacity:1" fill="#514b3a" d="M 751.5,211.5 C 736.657,211.171 721.99,211.504 707.5,212.5C 706.957,212.44 706.624,212.107 706.5,211.5C 721.661,210.174 736.661,210.174 751.5,211.5 Z"/></g>
<g><path style="opacity:1" fill="#e4b65a" d="M 692.5,237.5 C 694.527,237.338 696.527,237.505 698.5,238C 695.057,238.221 694.724,239.221 697.5,241C 714.167,241.333 730.833,241.667 747.5,242C 730.503,242.5 713.503,242.667 696.5,242.5C 695.167,240.833 693.833,239.167 692.5,237.5 Z"/></g>
<g><path style="opacity:1" fill="#020406" d="M 569.5,229.5 C 566.746,233.747 565.912,238.413 567,243.5C 568.563,246.728 571.063,248.895 574.5,250C 603.167,250.333 631.833,250.667 660.5,251C 632.835,251.5 605.169,251.667 577.5,251.5C 574.575,251.54 571.909,250.707 569.5,249C 562.86,242.381 562.86,235.881 569.5,229.5 Z"/></g>
<g><path style="opacity:1" fill="#040508" d="M 754.5,275.5 C 751.873,274.895 749.207,274.395 746.5,274C 733.504,273.5 720.504,273.333 707.5,273.5C 707.5,275.833 707.5,278.167 707.5,280.5C 706.527,278.052 706.194,275.385 706.5,272.5C 720.837,272.333 735.171,272.5 749.5,273C 752.251,273.124 753.918,273.957 754.5,275.5 Z"/></g>
<g><path style="opacity:1" fill="#000001" d="M 861.5,279.5 C 861.5,462.5 861.5,645.5 861.5,828.5C 863.167,828.5 864.833,828.5 866.5,828.5C 864.829,830.008 862.996,830.341 861,829.5C 860.167,646 860.334,462.666 861.5,279.5 Z"/></g>
<g><path style="opacity:1" fill="#000000" d="M 541.5,291.5 C 580.094,292.494 618.761,292.827 657.5,292.5C 620.529,293.659 581.529,293.826 540.5,293C 541.056,292.617 541.389,292.117 541.5,291.5 Z"/></g>
<g><path style="opacity:1" fill="#000201" d="M 385.5,319.5 C 384.527,319.987 383.527,320.487 382.5,321C 290.501,321.5 198.501,321.667 106.5,321.5C 197.999,320.667 289.666,320.167 381.5,320C 382.946,318.702 384.279,318.535 385.5,319.5 Z"/></g>
<g><path style="opacity:1" fill="#e2b458" d="M 639.5,391.5 C 636.439,399.869 630.439,403.369 621.5,402C 618.894,401.208 616.894,399.708 615.5,397.5C 625.711,403.93 633.211,401.596 638,390.5C 638.5,368.836 638.667,347.169 638.5,325.5C 629.5,325.5 620.5,325.5 611.5,325.5C 611.831,346.673 611.497,367.673 610.5,388.5C 610.5,366.833 610.5,345.167 610.5,323.5C 620.167,323.5 629.833,323.5 639.5,323.5C 639.5,346.167 639.5,368.833 639.5,391.5 Z"/></g>
<g><path style="opacity:1" fill="#03070f" d="M 598.5,421.5 C 589.088,414.696 583.755,405.363 582.5,393.5C 582.333,370.164 582.5,346.831 583,323.5C 583.333,347.833 583.667,372.167 584,396.5C 586.569,406.215 591.402,414.548 598.5,421.5 Z"/></g>
<g><path style="opacity:1" fill="#050e16" d="M 675.5,318.5 C 673.78,319.864 671.78,320.864 669.5,321.5C 668.667,345.826 668.167,370.16 668,394.5C 667.024,399.612 665.191,404.278 662.5,408.5C 663.757,404.559 664.924,400.559 666,396.5C 666.333,371.5 666.667,346.5 667,321.5C 669.587,319.804 672.421,318.804 675.5,318.5 Z"/></g>
<g><path style="opacity:1" fill="#c19b53" d="M 615.5,397.5 C 614.542,397.047 613.708,396.381 613,395.5C 612.434,393.277 611.6,391.277 610.5,389.5C 610.5,389.167 610.5,388.833 610.5,388.5C 611.497,367.673 611.831,346.673 611.5,325.5C 620.5,325.5 629.5,325.5 638.5,325.5C 638.667,347.169 638.5,368.836 638,390.5C 633.211,401.596 625.711,403.93 615.5,397.5 Z"/></g>
<g><path style="opacity:1" fill="#071327" d="M 639.5,391.5 C 639.5,368.833 639.5,346.167 639.5,323.5C 629.833,323.5 620.167,323.5 610.5,323.5C 610.5,345.167 610.5,366.833 610.5,388.5C 610.5,388.833 610.5,389.167 610.5,389.5C 609.499,368.546 609.166,346.213 609.5,322.5C 620.082,322.18 630.582,322.513 641,323.5C 641.667,346.167 641.667,368.833 641,391.5C 640.221,394.097 639.721,394.097 639.5,391.5 Z"/></g>
<g><path style="opacity:1" fill="#13202b" d="M 338.5,396.5 C 342.637,396.146 346.637,396.646 350.5,398C 406.901,444.813 471.901,470.48 545.5,475C 550.206,476.105 553.373,478.938 555,483.5C 555.667,544.167 555.667,604.833 555,665.5C 549.9,713.343 532.9,756.343 504,794.5C 473.253,833.257 436.419,864.757 393.5,889C 378.937,897.448 363.937,905.115 348.5,912C 342.443,913.162 336.777,912.162 331.5,909C 278.972,884.653 233.139,851.153 194,808.5C 167.169,776.847 148.169,740.847 137,700.5C 134.429,688.271 132.429,675.938 131,663.5C 130.333,603.5 130.333,543.5 131,483.5C 132.5,479.333 135.333,476.5 139.5,475C 214.467,469.819 280.801,443.652 338.5,396.5 Z"/></g>
<g><path style="opacity:1" fill="#fafafa" d="M 527.5,504.5 C 527.667,556.168 527.5,607.834 527,659.5C 525.756,665.785 524.923,672.118 524.5,678.5C 512.004,736.323 483.004,784.157 437.5,822C 408.598,845.291 377.264,864.791 343.5,880.5C 297.278,859.628 256.444,830.961 221,794.5C 197.173,767.529 179.506,736.862 168,702.5C 164.873,692.033 162.707,681.367 161.5,670.5C 160.748,667.253 160.248,663.919 160,660.5C 159.5,608.168 159.333,555.834 159.5,503.5C 209.493,498.086 256.493,483.253 300.5,459C 315.216,449.983 329.549,440.483 343.5,430.5C 370.678,450.79 400.011,467.624 431.5,481C 460.894,492.079 491.228,499.079 522.5,502C 524.503,502.335 526.17,503.168 527.5,504.5 Z"/></g>
<g><path style="opacity:1" fill="#c09b53" d="M 751.5,211.5 C 760.327,211.2 768.993,212.2 777.5,214.5C 806.166,225.488 824.5,245.822 832.5,275.5C 832.5,276.833 832.5,278.167 832.5,279.5C 831.5,461.999 831.167,644.666 831.5,827.5C 822.833,827.5 814.167,827.5 805.5,827.5C 805.667,650.166 805.5,472.833 805,295.5C 804.667,291.969 803.833,289.303 802.5,287.5C 798.851,275.548 792.184,265.548 782.5,257.5C 775.559,251.528 767.559,247.361 758.5,245C 737.699,243.906 717.032,243.072 696.5,242.5C 713.503,242.667 730.503,242.5 747.5,242C 730.833,241.667 714.167,241.333 697.5,241C 694.724,239.221 695.057,238.221 698.5,238C 696.527,237.505 694.527,237.338 692.5,237.5C 691.833,237.5 691.5,237.167 691.5,236.5C 695.182,236.665 698.848,236.499 702.5,236C 703.416,235.626 704.25,235.126 705,234.5C 709.855,227.619 710.688,220.285 707.5,212.5C 721.99,211.504 736.657,211.171 751.5,211.5 Z"/></g>
<g><path style="opacity:1" fill="#13202b" d="M 336.5,483.5 C 410.581,484.932 463.414,518.932 495,585.5C 521.569,656.252 508.402,718.419 455.5,772C 405.387,814.289 349.054,825.289 286.5,805C 219.412,776.376 183.079,725.543 177.5,652.5C 180.426,581.43 213.426,529.93 276.5,498C 295.734,489.415 315.734,484.582 336.5,483.5 Z"/></g>
<g><path style="opacity:1" fill="#030405" d="M 524.5,678.5 C 524.923,672.118 525.756,665.785 527,659.5C 527.5,607.834 527.667,556.168 527.5,504.5C 528.664,555.763 528.831,607.763 528,660.5C 527.508,667.987 526.342,673.987 524.5,678.5 Z"/></g>
<g><path style="opacity:1" fill="#010810" d="M 773.5,295.5 C 774.887,297.877 775.721,300.543 776,303.5C 776.667,478.5 776.667,653.5 776,828.5C 767.107,828.273 761.107,832.273 758,840.5C 757.601,840.272 757.435,839.938 757.5,839.5C 759.953,831.095 765.62,827.429 774.5,828.5C 774.828,650.812 774.495,473.145 773.5,295.5 Z"/></g>
<g><path style="opacity:1" fill="#0d1225" d="M 226.5,578.5 C 205.408,616.159 201.741,655.492 215.5,696.5C 213.464,694.112 211.964,690.778 211,686.5C 200.464,648.221 205.464,611.887 226,577.5C 226.399,577.728 226.565,578.062 226.5,578.5 Z"/></g>
<g><path style="opacity:1" fill="#c19c53" d="M 215.5,696.5 C 201.741,655.492 205.408,616.159 226.5,578.5C 265.632,522.17 318.632,502.67 385.5,520C 436.261,538.689 467.094,574.523 478,627.5C 483.797,688.189 461.297,735.022 410.5,768C 363.584,792.133 317.251,791.133 271.5,765C 245.365,748.206 226.698,725.373 215.5,696.5 Z"/></g>
<g><path style="opacity:1" fill="#12202c" d="M 338.5,534.5 C 344.816,533.576 349.983,535.576 354,540.5C 355.432,548.054 355.932,555.721 355.5,563.5C 374,566.653 387.833,576.319 397,592.5C 399.051,606.779 392.885,612.612 378.5,610C 374.85,606.419 371.184,602.752 367.5,599C 354.53,589.859 340.863,588.526 326.5,595C 315.068,603.616 313.568,613.782 322,625.5C 323.41,626.787 324.91,627.954 326.5,629C 338.675,633.169 351.008,636.836 363.5,640C 371.18,644.506 378.513,649.506 385.5,655C 401.652,676.131 402.485,697.964 388,720.5C 379.34,730.165 368.673,736.499 356,739.5C 355.667,747.167 355.333,754.833 355,762.5C 349.658,768.632 343.158,770.132 335.5,767C 333.291,765.127 331.458,762.96 330,760.5C 329.667,753.5 329.333,746.5 329,739.5C 313.245,734.73 300.578,725.73 291,712.5C 286.25,705.44 286.417,698.607 291.5,692C 296.232,689.599 301.232,688.932 306.5,690C 311.812,695.644 317.479,700.977 323.5,706C 338.52,713.996 352.687,712.829 366,702.5C 372.987,691.342 371.82,681.175 362.5,672C 358.112,669.139 353.446,666.806 348.5,665C 336.997,662.168 325.664,658.835 314.5,655C 295.428,642.685 287.261,625.185 290,602.5C 294.43,580.569 307.597,567.569 329.5,563.5C 329.334,556.492 329.5,549.492 330,542.5C 332.074,538.923 334.907,536.256 338.5,534.5 Z"/></g>
<g><path style="opacity:1" fill="#060d16" d="M 159.5,503.5 C 159.333,555.834 159.5,608.168 160,660.5C 160.248,663.919 160.748,667.253 161.5,670.5C 160.883,670.611 160.383,670.944 160,671.5C 159.034,665.87 158.367,660.204 158,654.5C 157.333,604.5 157.333,554.5 158,504.5C 158.333,503.833 158.667,503.167 159,502.5C 159.399,502.728 159.565,503.062 159.5,503.5 Z"/></g>
<g><path style="opacity:1" fill="#0d1529" d="M 782.5,257.5 C 792.184,265.548 798.851,275.548 802.5,287.5C 803.494,467.816 803.827,648.149 803.5,828.5C 813.167,828.5 822.833,828.5 832.5,828.5C 832.5,645.5 832.5,462.5 832.5,279.5C 832.5,278.167 832.5,276.833 832.5,275.5C 832.369,274.761 832.536,274.094 833,273.5C 833.333,275.5 833.667,277.5 834,279.5C 834.667,462.833 834.667,646.167 834,829.5C 823.91,830.652 813.744,830.819 803.5,830C 802.667,651.903 802.167,473.736 802,295.5C 799.906,280.407 793.073,267.907 781.5,258C 781.728,257.601 782.062,257.435 782.5,257.5 Z"/></g>
<g><path style="opacity:1" fill="#daaf56" d="M 832.5,279.5 C 832.5,462.5 832.5,645.5 832.5,828.5C 822.833,828.5 813.167,828.5 803.5,828.5C 803.827,648.149 803.494,467.816 802.5,287.5C 803.833,289.303 804.667,291.969 805,295.5C 805.5,472.833 805.667,650.166 805.5,827.5C 814.167,827.5 822.833,827.5 831.5,827.5C 831.167,644.666 831.5,461.999 832.5,279.5 Z"/></g>
<g><path style="opacity:1" fill="#081429" d="M 854.5,859.5 C 854.167,859.5 853.833,859.5 853.5,859.5C 829.833,859.5 806.167,859.5 782.5,859.5C 782.5,860.5 782.5,861.5 782.5,862.5C 779.129,870.27 776.129,878.27 773.5,886.5C 772.903,886.265 772.57,885.765 772.5,885C 775.312,875.727 778.645,866.727 782.5,858C 806.167,857.333 829.833,857.333 853.5,858C 854.167,858.333 854.833,858.667 855.5,859C 855.272,859.399 854.938,859.565 854.5,859.5 Z"/></g>
<g><path style="opacity:1" fill="#f0bf5c" d="M 853.5,859.5 C 829.777,859.854 806.11,860.854 782.5,862.5C 782.5,861.5 782.5,860.5 782.5,859.5C 806.167,859.5 829.833,859.5 853.5,859.5 Z"/></g>
<g><path style="opacity:1" fill="#bf9b52" d="M 853.5,859.5 C 853.833,859.5 854.167,859.5 854.5,859.5C 856.819,866.813 859.152,874.146 861.5,881.5C 860.295,882.672 860.295,884.005 861.5,885.5C 832.839,886.333 804.172,886.833 775.5,887C 804.831,887.5 834.165,887.667 863.5,887.5C 848.67,888.167 833.67,888.5 818.5,888.5C 803.151,888.499 788.151,887.833 773.5,886.5C 776.129,878.27 779.129,870.27 782.5,862.5C 806.11,860.854 829.777,859.854 853.5,859.5 Z"/></g>
<g><path style="opacity:1" fill="#e6b85a" d="M 861.5,881.5 C 862.363,883.421 863.029,885.421 863.5,887.5C 834.165,887.667 804.831,887.5 775.5,887C 804.172,886.833 832.839,886.333 861.5,885.5C 860.295,884.005 860.295,882.672 861.5,881.5 Z"/></g>
<g><path style="opacity:1" fill="#202326" d="M 739.5,887.5 C 740.043,887.56 740.376,887.893 740.5,888.5C 738.898,892.807 737.398,897.14 736,901.5C 734.632,908.798 737.465,913.632 744.5,916C 793.668,916.167 842.668,916.667 891.5,917.5C 842.541,918.657 793.541,918.824 744.5,918C 736.029,914.601 732.862,908.434 735,899.5C 736.214,895.355 737.714,891.355 739.5,887.5 Z"/></g>
</svg>
